<svg width="63.431885" height="56.439209" viewBox="0 0 63.4319 56.4392" fill="none" xmlns="http://www.w3.org/2000/svg" xmlns:xlink="http://www.w3.org/1999/xlink">
	<desc>
			Created with Pixso.
	</desc>
	<defs/>
	<path id="Path 684" d="M52.156 18.2935C51.4807 18.0623 50.8 17.8479 50.114 17.6506C50.228 17.1885 50.3333 16.7241 50.4299 16.2576C51.9761 8.75757 50.9651 2.7085 47.5139 0.718506C44.2051 -1.19043 38.793 0.799561 33.3269 5.55664C32.7883 6.02319 32.262 6.50635 31.748 7.00562C31.4033 6.67212 31.053 6.34863 30.697 6.03467C24.968 0.94751 19.2261 -1.19556 15.7781 0.800537C12.4719 2.7146 11.4929 8.40063 12.884 15.5085C13.0227 16.2126 13.179 16.9126 13.353 17.6086C12.541 17.8396 11.7529 18.0854 11.0049 18.3467C4.28906 20.6875 0 24.3577 0 28.1646C0 32.0967 4.6001 36.0396 11.6001 38.4307C12.1672 38.6233 12.739 38.802 13.3149 38.9666C13.1277 39.7166 12.9609 40.4717 12.8149 41.2314C11.488 48.2195 12.5239 53.7676 15.822 55.6697C19.228 57.6335 24.9441 55.6145 30.51 50.7495C30.95 50.365 31.3914 49.9583 31.834 49.5295C32.3906 50.0669 32.9624 50.5886 33.5491 51.0945C38.9399 55.7336 44.2649 57.6077 47.5601 55.7007C50.96 53.7305 52.0681 47.7705 50.6321 40.5186C50.5227 39.9646 50.396 39.3979 50.252 38.8186C50.6521 38.7 51.0454 38.5771 51.4319 38.4507C58.7041 36.0415 63.4319 32.1506 63.4319 28.1616C63.4319 24.3416 59.0049 20.6465 52.1531 18.2886L52.156 18.2935Z" fill="#8989A2" fill-opacity="1.000000" fill-rule="nonzero"/>
	<path id="Path 685" d="M50.5779 35.8823C50.231 35.9973 49.8779 36.1084 49.5129 36.2153C48.626 33.4668 47.5527 30.782 46.3008 28.1792C47.5054 25.6108 48.5369 22.9646 49.3879 20.2583C50.0369 20.4463 50.667 20.6443 51.2739 20.8584C57.1438 22.8794 60.7249 25.8674 60.7249 28.1694C60.7249 30.6213 56.8579 33.8054 50.5789 35.8862L50.5779 35.8823ZM47.9729 41.0454C48.5857 43.7939 48.6875 46.6318 48.2729 49.4172C47.8948 51.4543 47.135 52.8113 46.1958 53.3552C44.1958 54.5122 39.9209 53.0083 35.3108 49.0413C34.7822 48.5867 34.2488 48.1021 33.7109 47.5874C35.6333 45.459 37.4097 43.2031 39.0278 40.8352C41.9189 40.5916 44.7896 40.1492 47.6199 39.5112C47.7493 40.0332 47.8635 40.5449 47.9629 41.0464L47.9729 41.0454ZM21.625 53.1582C19.6719 53.8484 18.116 53.8674 17.1758 53.3252C15.1758 52.1714 14.3428 47.7163 15.4758 41.7402C15.6091 41.0344 15.7637 40.3323 15.939 39.6343C18.7573 40.24 21.6135 40.6536 24.4878 40.8723C26.1536 43.2317 27.9724 45.4792 29.9329 47.6003C29.5388 47.981 29.136 48.3521 28.7239 48.7134C26.6499 50.6184 24.2432 52.1255 21.6238 53.1594L21.625 53.1582ZM12.4749 35.8704C9.78809 35.0254 7.27954 33.6931 5.07495 31.9404C3.50293 30.5894 2.71289 29.2512 2.71289 28.1653C2.71289 25.8552 6.15698 22.9094 11.9009 20.9062C12.6216 20.6562 13.3491 20.4272 14.084 20.2192C14.9368 22.9553 15.9697 25.6318 17.1758 28.2312C15.9548 30.8682 14.9092 33.5828 14.0459 36.3574C13.5166 36.2065 12.9929 36.0432 12.4749 35.8674L12.4749 35.8704ZM15.542 14.9883C14.3499 8.89526 15.1418 4.29932 17.1338 3.14624C19.2559 1.91724 23.949 3.66943 28.8948 8.06128C29.2109 8.34229 29.5288 8.63623 29.8469 8.94043C27.9011 11.0476 26.0972 13.2815 24.4468 15.6272C21.5999 15.8828 18.7722 16.3225 15.9819 16.9434C15.8198 16.2954 15.6746 15.6436 15.5459 14.9883L15.542 14.9883ZM42.9048 21.7454C42.2849 20.6741 41.6418 19.6167 40.9758 18.5732C43 18.8284 44.939 19.1733 46.7598 19.5842C46.1755 21.438 45.498 23.261 44.73 25.0464C44.1438 23.9336 43.5356 22.8337 42.9048 21.7463L42.9048 21.7454ZM31.7468 10.8762C33.0664 12.3149 34.3123 13.8191 35.48 15.3833C32.9819 15.2654 30.4819 15.2654 27.98 15.3833C29.2119 13.7583 30.4749 12.2483 31.7449 10.8833L31.7468 10.8762ZM20.5129 21.7634C19.8909 22.8428 19.2939 23.936 18.7219 25.0432C17.9358 23.1724 17.261 21.3323 16.7129 19.5583C18.5229 19.1533 20.4529 18.8223 22.4639 18.5713C21.7905 19.6213 21.1423 20.688 20.5188 21.7712L20.5129 21.7634ZM22.5129 37.9573C20.5493 37.7441 18.5981 37.4304 16.667 37.0173C17.2268 35.2083 17.917 33.3293 18.7229 31.4172C19.2969 32.5254 19.897 33.6194 20.5229 34.6992C21.1609 35.8005 21.825 36.8867 22.5149 37.9573L22.5129 37.9573ZM31.813 45.6462C30.5288 44.2603 29.2478 42.7273 27.9958 41.0784C29.2104 41.1262 30.4475 41.1504 31.7068 41.1504C33.0002 41.1504 34.2766 41.1221 35.5359 41.0654C34.377 42.655 33.1372 44.1843 31.8218 45.6472L31.813 45.6462ZM44.7559 31.3203C45.562 33.1421 46.2729 35.0046 46.886 36.9004C44.9321 37.3394 42.9568 37.6763 40.9678 37.9094C41.6387 36.8467 42.2878 35.7708 42.9158 34.6814C43.554 33.5747 44.1672 32.4543 44.7559 31.3203ZM40.5688 33.3274C39.6082 34.9939 38.594 36.6306 37.5259 38.2373C35.6438 38.3713 33.699 38.4373 31.7168 38.4373C29.7349 38.4373 27.823 38.3762 25.9739 38.2563C24.8787 36.6562 23.8452 35.0171 22.8738 33.3384C21.9072 31.6716 21.0051 29.968 20.168 28.2273C21.0024 26.4893 21.9026 24.7847 22.8679 23.1133C23.8306 21.4426 24.856 19.8093 25.9438 18.2134C27.8308 18.0703 29.7649 17.9963 31.72 17.9963C33.6748 17.9963 35.6199 18.0713 37.5068 18.2153C38.583 19.8054 39.6016 21.4319 40.563 23.0952C41.5242 24.7585 42.4358 26.4553 43.2979 28.1853C42.4504 29.9287 41.542 31.6404 40.5718 33.3203L40.5688 33.3274ZM46.1589 3.06543C48.283 4.29028 49.1089 9.23022 47.7749 15.7092C47.6875 16.1313 47.5925 16.5518 47.49 16.9702C44.6953 16.3369 41.8618 15.8894 39.0078 15.6304C37.373 13.2817 35.5815 11.0459 33.646 8.93823C34.1213 8.48022 34.6077 8.03442 35.105 7.60034C39.7878 3.52441 44.1648 1.91528 46.1599 3.06543L46.1589 3.06543Z" fill="#FFFFFF" fill-opacity="1.000000" fill-rule="nonzero"/>
	<path id="Path 686" d="M31.717 22.5015C32.8374 22.5015 33.9326 22.8337 34.8643 23.4563C35.7959 24.0786 36.522 24.9634 36.9507 25.9985C37.3796 27.0337 37.4917 28.1729 37.2732 29.2717C37.0547 30.3706 36.5151 31.3799 35.7227 32.1721C34.9304 32.9646 33.9211 33.5039 32.8223 33.7227C31.7234 33.9412 30.5842 33.8291 29.5491 33.4001C28.5139 32.9714 27.6292 32.2454 27.0068 31.3137C26.3843 30.3821 26.052 29.2869 26.052 28.1665C26.052 26.6641 26.6489 25.2231 27.7112 24.1606C28.7737 23.0984 30.2146 22.5015 31.717 22.5015Z" fill="#8989A2" fill-opacity="1.000000" fill-rule="nonzero"/>
</svg>
